<?xml version="1.0" encoding="UTF-8"?>
<!--
  Спиртовка — значок инвентаря для сбора стола в лабораторной работе.
  Нарисован scripts/znachki-inventarya.py в том же языке, что нарезанные
  из схемы приборы: примитивы, три ступени светлоты, обводка из темы.
  Цвета не зашиты — приходят по классам d-eq-*.
-->
<svg xmlns="http://www.w3.org/2000/svg" viewBox="0 0 76 116" role="img" aria-label="Спиртовка">
<path class="d-eq-accent" d="M38 6c9 10 13 18 13 25a13 13 0 0 1-26 0c0-7 4-15 13-25z"/>
  <rect class="d-eq-mid" x="33" y="44" width="10" height="12"/>
  <path class="d-eq-light" d="M22 56h32c8 0 14 8 14 20v25a5 5 0 0 1-5 5H13a5 5 0 0 1-5-5V76c0-12 6-20 14-20z"/>
  <path class="d-eq-none" d="M8 84h60"/>
</svg>
